<svg width="28" height="17" viewBox="0 0 28 17" fill="none" xmlns="http://www.w3.org/2000/svg">
<path d="M27.1426 7.2026L16.5154 0.844382C16.2525 0.684413 15.9514 0.597984 15.6437 0.594124C15.336 0.590263 15.0329 0.669114 14.766 0.822438C14.4765 0.991036 14.2368 1.23325 14.0711 1.52449C13.9055 1.81573 13.8199 2.14561 13.823 2.48064V6.92858L3.65435 0.842694C3.39144 0.682725 3.0904 0.596296 2.78268 0.592436C2.47495 0.588575 2.17183 0.667426 1.905 0.82075C1.61547 0.989348 1.37571 1.23157 1.21008 1.5228C1.04445 1.81404 0.958845 2.14392 0.961955 2.47895V14.914C0.958745 15.2492 1.0443 15.5792 1.20994 15.8705C1.37558 16.1619 1.61538 16.4042 1.905 16.5728C2.17183 16.7261 2.47495 16.805 2.78268 16.8011C3.0904 16.7973 3.39144 16.7108 3.65435 16.5509L13.823 10.4622V14.9118C13.8194 15.2473 13.9048 15.5778 14.0704 15.8695C14.2361 16.1613 14.4761 16.404 14.766 16.5728C15.0329 16.7261 15.336 16.805 15.6437 16.8011C15.9514 16.7973 16.2525 16.7108 16.5154 16.5509L27.1426 10.1926C27.3953 10.0344 27.6035 9.81453 27.7479 9.55372C27.8923 9.2929 27.968 8.99967 27.968 8.70156C27.968 8.40345 27.8923 8.11022 27.7479 7.8494C27.6035 7.58859 27.3953 7.36873 27.1426 7.21048V7.2026Z" fill="#E1E1E6"/>
</svg>
