<svg width="19" height="22" viewBox="0 0 19 22" fill="none" xmlns="http://www.w3.org/2000/svg">
<path d="M2.32137 21.0488C1.9759 21.0482 1.63655 20.9576 1.33669 20.7861C0.661484 20.4035 0.24173 19.6607 0.24173 18.8544V2.53687C0.24173 1.72831 0.661484 0.987832 1.33669 0.605214C1.64369 0.42878 1.99244 0.338048 2.3465 0.342503C2.70056 0.346957 3.04692 0.446433 3.34938 0.630535L17.2952 8.97837C17.5859 9.16061 17.8255 9.41368 17.9916 9.71386C18.1577 10.014 18.2448 10.3515 18.2448 10.6945C18.2448 11.0376 18.1577 11.375 17.9916 11.6752C17.8255 11.9754 17.5859 12.2284 17.2952 12.4107L3.34713 20.7608C3.0376 20.9479 2.68307 21.0475 2.32137 21.0488V21.0488Z" fill="#E1E1E6"/>
</svg>
