<svg width="28" height="17" viewBox="0 0 28 17" fill="none" xmlns="http://www.w3.org/2000/svg">
<path d="M1.33917 7.2026L11.9664 0.844382C12.2293 0.684413 12.5303 0.597984 12.8381 0.594124C13.1458 0.590263 13.4489 0.669114 13.7157 0.822438C14.0053 0.991036 14.245 1.23325 14.4107 1.52449C14.5763 1.81573 14.6619 2.14561 14.6588 2.48064V6.92858L24.8274 0.842694C25.0903 0.682725 25.3914 0.596296 25.6991 0.592436C26.0068 0.588575 26.3099 0.667426 26.5768 0.82075C26.8663 0.989348 27.1061 1.23157 27.2717 1.5228C27.4373 1.81404 27.5229 2.14392 27.5198 2.47895V14.914C27.5231 15.2492 27.4376 15.5792 27.2719 15.8706C27.1063 16.1619 26.8664 16.4042 26.5768 16.5728C26.3099 16.7261 26.0068 16.805 25.6991 16.8011C25.3914 16.7973 25.0903 16.7108 24.8274 16.5509L14.6588 10.4622V14.9118C14.6625 15.2473 14.5771 15.5778 14.4114 15.8696C14.2458 16.1614 14.0057 16.404 13.7157 16.5728C13.4489 16.7261 13.1458 16.805 12.8381 16.8011C12.5303 16.7973 12.2293 16.7108 11.9664 16.5509L1.33917 10.1926C1.08653 10.0344 0.878246 9.81453 0.733863 9.55372C0.589479 9.2929 0.513733 8.99967 0.513733 8.70156C0.513733 8.40345 0.589479 8.11022 0.733863 7.8494C0.878246 7.58859 1.08653 7.36873 1.33917 7.21048V7.2026Z" fill="#E1E1E6"/>
</svg>
